<?xml version="1.0" encoding="utf-8"?>
<!-- Generator: Adobe Illustrator 18.1.1, SVG Export Plug-In . SVG Version: 6.00 Build 0)  -->
<svg version="1.1" id="Layer_1" xmlns="http://www.w3.org/2000/svg" xmlns:xlink="http://www.w3.org/1999/xlink" x="0px" y="0px"
	 viewBox="0 0 40 40" enable-background="new 0 0 40 40" xml:space="preserve">
<g>
	<path stroke="#000000" stroke-width="0.5" stroke-linecap="square" stroke-linejoin="round" stroke-miterlimit="10" d="M12.2,29.4
		c0.3,0.2,0.5,0.6,0.8,1c0.2,0.2,0.4,0.4,0.6,0.6c0.3,0.3,0.5,0.5,0.8,0.7c0.6,0.4,1.2,0.8,1.8,1.1c0.6,0.3,1.3,0.6,2,0.7
		c0.7,0.2,1.4,0.3,2.1,0.3c0,0,0.1,0,0.1,0c1.9,0,3.7-0.6,5.2-1.8c1.4-1.2,2.4-3,2.4-4.8c0-1.9-0.9-3.7-2.6-4.7
		c-1.6-0.9-3.8-0.8-5.2,0.4c1,0.3,2,0.5,2.9,1c0.9,0.5,1.7,1.2,2,2.2c0.5,1.4-0.1,3-1.1,3.9s-2.6,1.3-4,1.1c-1.4-0.2-2.8-0.8-4-1.6
		c-0.6-0.4-1.2-0.9-1.4-1.5c-0.2-0.7,0-1.5,0.7-1.7C14.7,26,14,26,13.5,26.4c-0.5,0.4-0.7,1.1-0.5,1.7c-0.5-0.3-1.3-0.4-1.8-0.1
		c-0.6,0.3-0.9,1.1-0.6,1.6c0,0,0.3-0.2,0.4-0.3c0.1-0.1,0.3-0.1,0.4-0.1C11.6,29.2,11.9,29.3,12.2,29.4z"/>
	<path stroke="#000000" stroke-width="0.5" stroke-linecap="square" stroke-linejoin="round" stroke-miterlimit="10" d="M29.7,8.5
		c-0.2,0.4-0.6,0.6-1,0.7c-0.1,0-0.2,0-0.2,0c-0.2,0-0.4-0.1-0.6-0.2c-0.2-0.1-0.4-0.3-0.6-0.5c-0.2-0.2-0.4-0.3-0.6-0.5
		c-0.2-0.1-0.4-0.3-0.6-0.4c-0.2-0.1-0.4-0.2-0.6-0.4C25.4,7.2,25.2,7.1,25,7c-0.2-0.1-0.4-0.2-0.6-0.3c-0.2-0.1-0.4-0.2-0.6-0.3
		c-0.2-0.1-0.4-0.2-0.6-0.2C23,6.1,22.8,6.1,22.6,6c-0.2,0-0.5-0.1-0.7-0.1c-0.2,0-0.5-0.1-0.7-0.1c-3.8-0.2-7.4,2-7.6,6
		c-0.1,1.1,0.1,2.2,0.7,3.1c0.5,0.8,1.3,1.4,2.1,1.9c0,0,0.1,0.1,0.2,0.1c0.1,0,0.2-0.1,0.2-0.1c0.1-0.1,0.3-0.2,0.4-0.3
		c0.6-0.5,1.2-0.9,1.9-1.1c0,0-0.1-0.1-0.2-0.1c-0.1,0-0.1-0.1-0.2-0.1c-0.1-0.1-0.3-0.1-0.4-0.2c-0.2-0.1-0.5-0.2-0.7-0.4
		c-0.4-0.3-0.8-0.6-1-0.9c-0.4-0.5-0.5-1.2-0.5-1.8c0.1-2.5,2.3-3.6,4.8-3.5c0.5,0,1,0.1,1.4,0.2c0.5,0.1,0.9,0.3,1.3,0.5
		c0.4,0.2,0.8,0.4,1.2,0.7c0.2,0.2,0.5,0.3,0.7,0.5c0.1,0.1,0.2,0.2,0.3,0.3c0.1,0.1,0.2,0.1,0.3,0.2c0.3,0.2,0.5,0.6,0.5,0.9
		c0,0.4-0.1,0.8-0.5,1.1c0.5,0.3,1.2,0.2,1.6-0.3c0.4-0.4,0.5-1.1,0.3-1.6c0-0.1-0.1-0.2-0.1-0.3c0.1,0,0.2,0.1,0.3,0.1
		c0.6,0.1,1.2-0.1,1.5-0.6C30.1,9.7,30.1,9,29.7,8.5z"/>
	<path d="M37.9,32.5c-0.5-0.6-1.3-0.9-2.1-0.8c-0.2,0-0.3,0.1-0.5,0.1c0.1-0.1,0.1-0.3,0.2-0.4c0.3-0.7,0.1-1.6-0.4-2.2
		c-0.5-0.6-1.5-0.8-2.1-0.4c0.5,0.4,0.8,1,0.7,1.5c-0.1,0.6-0.4,0.9-0.9,1.4l-0.9,0.7c-1.4,1.2-3,2.1-4.8,2.7c-1.8,0.7-3.7,1-5.6,1
		c-2.2,0-4.3-0.4-6.3-1.3c-1.9-0.8-3.7-2-5.2-3.5c-1.5-1.5-2.7-3.2-3.5-5.2c-0.8-2-1.3-4-1.3-6.2c0.9,0.3,1.5,0.7,2.2,1.2
		c1.4,1,2.9,2.1,6,2.1c2.7,0,4.2-0.9,5.5-1.8c0.2-0.1,0.3-0.2,0.5-0.3c0.2-0.1,0.3-0.2,0.5-0.3c0.9-0.6,1.8-1.1,3.5-1.1
		c1.9,0,2.8,0.6,4,1.5c0.1,0.1,0.2,0.2,0.3,0.2c0.7,0.5,1.5,1,2.3,1.3c0.2,0.1,0.5,0.2,0.7,0.2c0.4,0.1,0.8,0.2,1.1,0.3
		c0.4,0,0.8,0.1,1.3,0.1h0.9c0,0,0,0,0,0c0.5,0,1.2,0.2,1.6,0.6c0.4,0.4,0.5,1.1,0.4,1.6c0.8-0.1,1.4-0.8,1.5-1.6
		c0.1-0.8-0.4-1.6-1-2c-0.1-0.1-0.3-0.2-0.4-0.2c0.1,0,0.3-0.1,0.4-0.2c0.7-0.4,1.2-1.1,1.2-1.9c0-0.8-0.6-1.6-1.3-1.7
		c0.1,0.6-0.1,1.2-0.6,1.6c-0.5,0.3-1,0.4-1.6,0.4H33c-1.9,0-2.8-0.6-4-1.4c-1.4-1-2.9-2.1-6-2.1c-0.1,0-0.2,0-0.4,0
		c-0.2,0-0.5,0-0.7,0.1c-0.2,0-0.4,0.1-0.6,0.1c-0.2,0-0.4,0.1-0.6,0.1c-0.2,0.1-0.4,0.1-0.6,0.2c-0.1,0-0.2,0.1-0.2,0.1
		c-0.2,0.1-0.4,0.2-0.6,0.3c-0.1,0.1-0.3,0.1-0.4,0.2c-0.1,0-0.1,0.1-0.2,0.1c-0.2,0.1-0.4,0.2-0.5,0.3c-0.2,0.1-0.3,0.2-0.5,0.3
		c-0.2,0.1-0.3,0.2-0.5,0.3c-0.5,0.3-0.9,0.6-1.4,0.9c-0.5,0.3-1.1,0.5-1.8,0.5c-0.2,0-0.5,0-0.8,0c-1.9,0-2.8-0.6-4-1.5
		c-1-0.7-2.1-1.5-3.9-1.9c0.2-1,0.5-2,0.9-3c0.8-1.9,2-3.7,3.5-5.2c1.5-1.5,3.2-2.7,5.2-3.5c2-0.8,4.1-1.3,6.3-1.3
		c1.9,0,3.8,0.3,5.6,1c1.7,0.6,3.3,1.6,4.8,2.7l0.6,0.5c0.4,0.3,0.7,0.7,0.7,1.2c0.1,0.6-0.2,1.2-0.7,1.5c0.7,0.4,1.6,0.2,2.1-0.4
		C35.2,9.6,35.3,8.8,35,8c-0.1-0.2-0.1-0.3-0.2-0.4c0.1,0,0.3,0.1,0.5,0.1c0.8,0.1,1.6-0.2,2.1-0.8c0.5-0.6,0.5-1.6-0.1-2.2
		c-0.3,0.5-0.8,0.9-1.4,0.9c-0.5,0-0.9-0.1-1.3-0.5L34.4,5L34,4.7c-1.7-1.4-3.7-2.5-5.8-3.3c-2.2-0.8-4.4-1.2-6.8-1.2
		c-2.7,0-5.2,0.5-7.7,1.5c-2.3,1-4.5,2.4-6.3,4.2c-1.8,1.8-3.2,3.9-4.2,6.3c-1,2.4-1.5,5-1.5,7.7s0.5,5.2,1.5,7.7
		c1,2.3,2.4,4.5,4.2,6.3c1.8,1.8,3.9,3.2,6.3,4.2c2.4,1,5,1.5,7.7,1.5c2.3,0,4.6-0.4,6.8-1.2c2.1-0.8,4-1.9,5.8-3.3l0.9-0.7
		c0.4-0.4,1-0.7,1.6-0.6c0.6,0.1,1.1,0.4,1.4,0.9C38.4,34.1,38.3,33.1,37.9,32.5z"/>
</g>
</svg>
